<svg width="550" height="474" viewBox="0 0 550 474" fill="none" xmlns="http://www.w3.org/2000/svg">
<g clip-path="url(#clip0_565_165)">
<path d="M392.36 464.144L383.107 464.143L378.705 428.454L392.362 428.454L392.36 464.144Z" fill="#FFB6B6"/>
<path d="M394.719 473.113L364.884 473.112V472.735C364.884 469.655 366.108 466.701 368.285 464.524C370.463 462.346 373.417 461.122 376.497 461.122H376.497L381.947 456.988L392.115 461.123L394.72 461.123L394.719 473.113Z" fill="#2F2E41"/>
<path d="M541.83 430.394L535.521 437.162L506.411 416.049L515.722 406.059L541.83 430.394Z" fill="#FFB6B6"/>
<path d="M550 434.783L529.657 456.608L529.381 456.35C527.128 454.25 525.802 451.342 525.694 448.264C525.585 445.186 526.704 442.191 528.804 439.938L529.496 433.132L539.453 428.513L541.229 426.607L550 434.783Z" fill="#2F2E41"/>
<path d="M528.138 410.336L518.358 430.791L458.301 391.027L449.564 379.123L420.917 340.091L409.272 358.568L401.17 377.884C398.529 379.607 396.304 381.894 394.655 384.581C393.006 387.268 391.974 390.288 391.634 393.423L391.264 396.842L396.384 442.871L376.923 448.846L365.746 387.013L369.4 373.615L373.161 354.807L392.1 295.374H442.779L471.847 357.246L473.971 369.853L482.213 379.312L528.138 410.336Z" fill="#2F2E41"/>
<path d="M422.817 198.136L431.349 204.632L441.637 207.794C441.637 207.794 445.891 267.625 449.723 271.457C453.556 275.29 450.099 275.393 450.869 280.371C451.64 285.35 453.511 295.556 453.511 295.556C427.641 309.25 405.339 309.617 387.424 293.593C387.195 292.602 387.312 291.562 387.754 290.646C388.197 289.73 388.94 288.993 389.859 288.556C393.193 286.787 386.785 278.53 389.51 277.149C392.235 275.769 388.402 263.792 388.402 263.792L390.916 238.803L388.93 234.809L393.777 210.367L402.188 207.296L405.548 199.201L422.817 198.136Z" fill="#3F3D56"/>
<path d="M428.162 304.475C428.124 303.394 428.323 302.319 428.745 301.323C429.168 300.328 429.803 299.438 430.607 298.715C431.411 297.992 432.364 297.454 433.398 297.139C434.432 296.824 435.523 296.739 436.593 296.891L448.617 273.522L455.315 285.423L442.871 305.791C442.496 307.572 441.481 309.154 440.018 310.237C438.554 311.32 436.745 311.828 434.932 311.666C433.119 311.504 431.428 310.682 430.18 309.357C428.933 308.031 428.214 306.294 428.162 304.475Z" fill="#FFB6B6"/>
<path d="M448.41 298.758L474.198 258.789L474.113 258.606C474.015 258.395 468.176 245.783 462.517 234.231C461.646 232.452 460.779 230.698 459.938 229.018C459.575 228.293 459.217 227.584 458.865 226.889C456.488 222.204 454.412 218.331 453.173 216.492C450.431 212.333 446.349 209.237 441.606 207.717L441.486 207.687L441.372 207.734C439.052 208.713 437.134 210.454 435.936 212.669C434.738 214.884 434.33 217.442 434.78 219.92C437.017 231.872 442.001 243.141 449.339 252.837L453.52 258.348L438.992 289.934L448.41 298.758Z" fill="#3F3D56"/>
<path d="M359.732 145.552C360.443 146.368 360.965 147.329 361.264 148.368C361.562 149.407 361.629 150.499 361.46 151.567C361.291 152.635 360.89 153.653 360.284 154.549C359.679 155.445 358.885 156.197 357.958 156.753L363.334 182.478L350.636 177.451L347.477 153.792C346.647 152.172 346.439 150.304 346.894 148.542C347.349 146.779 348.434 145.245 349.945 144.229C351.456 143.213 353.286 142.787 355.09 143.031C356.894 143.275 358.546 144.172 359.732 145.552Z" fill="#FFB6B6"/>
<path d="M347.603 162.744L352.738 210.032L352.919 210.121C353.069 210.194 359.575 213.385 367.56 217.185C368.908 217.827 368.714 220.604 370.122 221.267C371.092 221.724 373.653 220.066 374.633 220.524C383.362 224.606 392.188 228.575 395.705 229.65C400.454 231.155 405.575 230.99 410.217 229.183L410.329 229.132L410.387 229.023C411.573 226.801 411.967 224.242 411.503 221.766C411.039 219.291 409.745 217.047 407.835 215.406C398.571 207.529 387.603 201.913 375.797 199.002L369.079 197.354L360.476 163.668L347.603 162.744Z" fill="#3F3D56"/>
<path d="M413.722 195.457C423.042 195.457 430.597 187.902 430.597 178.582C430.597 169.262 423.042 161.707 413.722 161.707C404.402 161.707 396.847 169.262 396.847 178.582C396.847 187.902 404.402 195.457 413.722 195.457Z" fill="#FFB6B6"/>
<path d="M396.967 167.274C398.355 163.237 405.263 160.436 416.463 160.047C427.662 159.658 430.503 172.856 430.503 172.856C437.979 178.921 422.519 195.158 421.771 194.573L422.108 191.523C422.665 186.47 425.031 182.527 422.022 177.261L419.132 177.294C415.4 178.011 411.668 178.729 407.936 179.447L412.354 175.557L412.23 175.364C410.35 176.343 408.305 176.964 406.199 177.195C403.824 177.335 401.228 176.389 400.09 174.3C399.787 173.726 399.601 173.097 399.545 172.449C396.342 173.729 394.878 177.677 394.878 177.677C394.878 177.677 395.579 171.311 396.967 167.274Z" fill="#2F2E41"/>
<path d="M67.9893 168.286C67.7603 167.996 67.5137 167.72 67.251 167.46C67.3152 167.372 67.3794 167.275 67.4436 167.187L67.9893 168.286Z" fill="#2F2E41"/>
<path d="M71.2713 236.157C68.5109 241.06 62.9981 243.796 57.5335 245.136C51.3955 246.744 44.932 246.619 38.8607 244.775C38.0904 244.527 37.32 244.238 36.5737 243.917C36.9325 242.964 37.2169 241.985 37.4243 240.988C37.7036 239.639 37.8435 238.265 37.8416 236.887C37.2336 238.074 36.4459 239.159 35.5065 240.105C34.7818 240.866 33.9587 241.528 33.059 242.071C30.2684 240.377 27.8521 238.133 25.9574 235.475C26.0778 235.178 26.1982 234.881 26.3105 234.584C26.8932 233.034 27.3546 231.44 27.6907 229.818C28.1466 227.624 28.3752 225.39 28.3728 223.15C27.3834 225.08 26.1002 226.845 24.5691 228.381C24.1101 228.873 23.6225 229.336 23.1088 229.77C22.3132 227.353 22.0056 224.803 22.204 222.267C22.4023 219.731 23.1026 217.26 24.2642 214.997C27.4419 209.123 33.6047 205.632 39.0934 201.837C44.5901 198.041 50.0869 192.905 50.5523 186.237C50.8652 181.735 48.7789 177.226 49.6134 172.796C49.9644 170.928 50.8213 169.193 52.0906 167.778C53.36 166.364 54.9933 165.324 56.8124 164.774C58.6316 164.224 60.5669 164.183 62.4075 164.657C64.2481 165.13 65.9235 166.1 67.2511 167.46C64.1376 171.873 61.0402 176.439 59.7804 181.687C58.4965 187.032 59.5477 193.299 63.7605 196.837C65.2049 198.057 66.9783 198.924 68.0937 200.448C69.5782 202.471 69.5862 205.167 69.827 207.654C70.3084 212.493 71.8893 217.147 72.7398 221.938C73.5985 226.72 73.6466 231.912 71.2713 236.157Z" fill="#2F2E41"/>
<path d="M14.6846 435.151L22.0084 440.809L47.3192 415.253L36.51 406.902L14.6846 435.151Z" fill="#A0616A"/>
<path d="M14.996 429.622L27.1067 437.876L23.2742 442.836L28.407 458.942C28.6606 459.737 28.6533 460.593 28.3862 461.384C28.119 462.175 27.606 462.86 26.922 463.339C26.2381 463.818 25.419 464.065 24.5843 464.046C23.7496 464.026 22.9431 463.74 22.2825 463.229L8.49983 452.58L9.91519 445.838L5.1966 450.027L0 446.012L14.996 429.622Z" fill="#2F2E41"/>
<path d="M51.8398 182.543C51.8388 185.404 52.5401 188.222 53.8824 190.749C55.2246 193.277 57.1667 195.435 59.5381 197.037C61.9094 198.638 64.6377 199.633 67.4832 199.934C70.3288 200.234 73.2047 199.832 75.8584 198.762C78.5122 197.692 80.8627 195.986 82.7036 193.796C84.5444 191.605 85.8194 188.996 86.4166 186.198C87.0138 183.399 86.9149 180.497 86.1286 177.746C85.3423 174.995 83.8926 172.478 81.9069 170.418L81.823 170.334C81.6832 170.188 81.5433 170.041 81.3964 169.901L81.3938 169.9L81.3915 169.899L81.39 169.897L81.3895 169.894C81.2077 169.726 81.0259 169.558 80.837 169.397C77.7604 166.698 73.4363 163.769 69.0241 163.769C59.3677 163.769 51.8398 172.887 51.8398 182.543Z" fill="#2F2E41"/>
<path d="M151.479 173.566C151.563 174.498 151.441 175.437 151.122 176.318C150.804 177.198 150.296 177.998 149.635 178.66C148.974 179.323 148.175 179.833 147.296 180.154C146.416 180.474 145.477 180.599 144.545 180.517L101.258 219.601L93.8086 207.836L138.701 173.117C138.941 171.56 139.745 170.144 140.959 169.14C142.173 168.135 143.714 167.611 145.289 167.666C146.864 167.721 148.364 168.352 149.505 169.44C150.646 170.527 151.348 171.995 151.479 173.566Z" fill="#A0616A"/>
<path d="M82.757 231.398C82.757 231.398 84.3676 234.372 89.8692 229.779C94.2736 226.102 115.375 210.138 119.921 203.597C120.959 204.008 122.104 204.062 123.176 203.751C124.249 203.44 125.187 202.78 125.843 201.877L113.388 190.969C109.661 191.398 109.741 193.901 110.129 195.323L100.734 199.579L76.4717 215.084L81.5547 229.268L82.757 231.398Z" fill="#3B82F6"/>
<path d="M59.2529 258.803L58.3456 263.124L57.5752 279.061L91.4926 280.925L90.4393 256.413L87.1517 251.012L59.2529 258.803Z" fill="#A0616A"/>
<path d="M73.6282 201.246C81.7238 201.246 88.2866 194.683 88.2866 186.587C88.2866 178.492 81.7238 171.929 73.6282 171.929C65.5325 171.929 58.9697 178.492 58.9697 186.587C58.9697 194.683 65.5325 201.246 73.6282 201.246Z" fill="#A0616A"/>
<path d="M47.6038 240.654L47.5137 228.47C47.5116 224.086 48.9952 219.83 51.7226 216.397C54.4499 212.965 58.26 210.558 62.5312 209.569L62.5865 209.556L65.485 205.65L77.2612 206.828L79.4196 211.239L87.9528 216.321L91.2383 226.882C92.6633 227.832 93.8778 229.065 94.8062 230.504C95.7347 231.943 96.3574 233.557 96.6355 235.247C97.7509 242.372 92.7624 249.501 92.169 250.318L90.6401 258.929L57.3801 264.797L57.11 264.831L47.6038 240.654Z" fill="#3B82F6"/>
<path d="M91.5648 183.974C89.855 185.057 88.081 186.035 86.2525 186.903C84.3968 187.795 82.4557 188.496 80.4589 188.998C79.8876 187.744 79.1885 186.553 78.3726 185.443C78.5825 186.758 78.5879 188.098 78.3886 189.415C75.0789 189.949 71.689 189.671 68.5105 188.604L65.7501 183.974L65.5415 189.142C63.2546 189.559 60.9756 189.953 58.6887 190.362C58.5523 190.378 58.4158 190.41 58.2874 190.434C56.8671 184.031 58.8812 176.977 63.3589 172.708C65.582 170.611 68.3552 169.188 71.3556 168.605C74.356 168.023 77.46 168.305 80.3065 169.418C80.6676 169.562 81.0367 169.723 81.3897 169.892L81.3903 169.895L81.392 169.897L81.3947 169.899L81.3978 169.9C81.6064 170.004 81.783 170.253 82.0157 170.229C92.0301 169.113 92.3512 176.881 91.5648 183.974Z" fill="#2F2E41"/>
<path d="M67.1797 416.25L74.5148 421.893L99.7745 396.286L88.9487 387.957L67.1797 416.25Z" fill="#A0616A"/>
<path d="M68.1445 411.231L80.2719 419.461L76.4493 424.429L81.6147 440.525C81.8699 441.319 81.8643 442.175 81.5988 442.967C81.3332 443.758 80.8216 444.444 80.1386 444.924C79.4556 445.405 78.637 445.654 77.8023 445.636C76.9676 445.618 76.1605 445.333 75.4988 444.824L61.6947 434.202L63.0965 427.458L58.3863 431.657L53.1816 427.652L68.1445 411.231Z" fill="#2F2E41"/>
<path d="M43.3777 384.997L43.3773 384.902L46.8537 378.911L43.3039 371.113L43.1974 351.078L43.7728 348.071C44.5468 344.025 44.3216 339.853 43.1168 335.914L43.052 323.719C42.9273 320.664 47.6599 317.977 46.5562 315.431C36.1245 291.357 57.2087 272.993 57.3511 272.845L57.782 272.397L60.1197 274.168L62.3448 274.171L92.371 279.642L92.5878 280.046C93.7688 282.261 96.048 289.897 96.1832 293.352C97.6797 295.084 114.726 314.809 116.241 316.179C126.48 325.444 132.343 340.779 134.926 349.095C135.568 351.15 135.697 353.331 135.303 355.448C134.909 357.565 134.003 359.553 132.665 361.24L93.9003 403.699L83.4686 394.07L104.444 355.848L102.931 351.971C100.217 351.47 97.7612 350.043 95.982 347.934L91.7348 342.892C90.5588 341.5 89.8116 339.797 89.5834 337.989L87.0077 337.679L77.7815 327.992L71.3805 385.96L69.6402 390.539L39.3342 426.168L26.4951 418.143L43.3777 384.997Z" fill="#2F2E41"/>
<path d="M38.749 136.092C38.1668 136.825 37.7523 137.676 37.5348 138.587C37.3174 139.497 37.3022 140.444 37.4904 141.361C37.6785 142.278 38.0655 143.143 38.6239 143.894C39.1824 144.646 39.8988 145.265 40.7226 145.71L31.0859 174.239L38.9548 204.473L51.6435 198.736L43.8136 175.932L49.6716 142.738C50.3265 141.305 50.4328 139.681 49.9704 138.174C49.508 136.668 48.509 135.383 47.1626 134.564C45.8163 133.744 44.2162 133.447 42.6655 133.729C41.1148 134.01 39.7213 134.851 38.749 136.092Z" fill="#A0616A"/>
<path d="M50.3643 229.383C50.3643 229.383 47.3841 230.984 45.3115 224.123C43.6522 218.631 32.36 188.809 32.1565 180.846C31.0632 180.619 30.0765 180.035 29.3517 179.186C28.627 178.336 28.2053 177.27 28.1533 176.155L44.5539 173.885C47.4318 176.291 45.9894 178.339 44.8842 179.313L50.4701 188.775L62.1455 214.319L52.539 228.265L50.3643 229.383Z" fill="#3B82F6"/>
<path d="M58.6855 190.36C60.3698 185.281 63.3898 180.749 67.4288 177.239C71.4679 173.729 76.3771 171.371 81.6414 170.411C81.6624 170.404 81.7323 170.376 81.8232 170.334C81.8792 170.299 81.9491 170.265 82.019 170.23C81.8092 170.111 81.6065 170.006 81.3967 169.901L81.394 169.9L81.3917 169.899L81.3902 169.897L81.3897 169.894C81.2079 169.726 81.0261 169.558 80.8373 169.397L80.3059 169.418C80.3059 169.418 61.6293 166.461 58.6855 190.36Z" fill="#FD6584"/>
<path d="M431.336 415.396C433.374 412.332 432.168 407.946 428.641 405.6C425.114 403.254 420.603 403.836 418.565 406.899C416.526 409.963 417.733 414.349 421.26 416.695C424.786 419.041 429.297 418.46 431.336 415.396Z" fill="#F2F2F2"/>
<path d="M504.252 473.834H15.026C14.7889 473.833 14.5617 473.739 14.3943 473.571C14.2268 473.403 14.1328 473.175 14.1328 472.938C14.1328 472.701 14.2268 472.474 14.3943 472.306C14.5617 472.138 14.7889 472.043 15.026 472.042H504.252C504.489 472.042 504.717 472.137 504.885 472.305C505.053 472.473 505.148 472.701 505.148 472.938C505.148 473.176 505.053 473.404 504.885 473.572C504.717 473.74 504.489 473.834 504.252 473.834Z" fill="#CCCCCC"/>
<path d="M106.083 176.33C101.968 176.318 98.0015 174.789 94.9419 172.037C91.8824 169.285 89.9444 165.502 89.4986 161.411L79.9477 72.7077C79.4784 68.3036 80.7753 63.8931 83.5539 60.444C86.3325 56.9949 90.3657 54.7888 94.7688 54.3098L378.357 23.7749C382.761 23.3055 387.172 24.6022 390.621 27.3807C394.07 30.1592 396.276 34.1925 396.756 38.5957L406.307 127.298C406.776 131.703 405.479 136.113 402.7 139.562C399.922 143.012 395.888 145.218 391.485 145.697L107.897 176.232C107.295 176.297 106.689 176.329 106.083 176.33Z" fill="#F5F5F5"/>
<path d="M375.233 27.8929C374.7 27.893 374.168 27.9217 373.638 27.9788L100.274 57.4128C98.3629 57.6186 96.5108 58.1988 94.8236 59.1205C93.1364 60.0421 91.6473 61.287 90.4412 62.7841C89.2352 64.2812 88.3358 66.0013 87.7945 67.846C87.2531 69.6907 87.0805 71.6239 87.2863 73.5354L92.1154 118.384C92.8959 125.635 95.097 132.661 98.5928 139.06C102.089 145.46 106.811 151.109 112.489 155.683C118.168 160.258 124.693 163.67 131.69 165.723C138.687 167.776 146.02 168.431 153.271 167.651L345.491 146.954C352.719 146.175 359.723 143.981 366.104 140.496C372.484 137.011 378.115 132.303 382.676 126.641C387.237 120.98 390.638 114.475 392.685 107.499C394.732 100.523 395.386 93.2125 394.607 85.9842L389.76 40.9669C389.374 37.3811 387.678 34.064 384.997 31.6515C382.316 29.2389 378.839 27.9005 375.233 27.8929Z" fill="white"/>
<path d="M317.666 74.5677L164.88 91.0188C164.443 91.0664 164.001 91.0275 163.579 90.9042C163.157 90.7808 162.764 90.5756 162.422 90.3001C162.079 90.0247 161.794 89.6844 161.584 89.2988C161.373 88.9132 161.24 88.4898 161.193 88.0529C161.146 87.616 161.186 87.1741 161.309 86.7524C161.433 86.3308 161.639 85.9377 161.915 85.5957C162.191 85.2537 162.532 84.9694 162.917 84.7591C163.303 84.5488 163.727 84.4167 164.164 84.3702L316.95 67.9191C317.387 67.8715 317.829 67.9104 318.251 68.0338C318.673 68.1571 319.066 68.3623 319.408 68.6378C319.751 68.9132 320.036 69.2535 320.246 69.6391C320.457 70.0247 320.59 70.4481 320.637 70.885C320.684 71.3219 320.644 71.7638 320.521 72.1855C320.397 72.6071 320.191 73.0002 319.915 73.3422C319.639 73.6842 319.298 73.9685 318.913 74.1788C318.527 74.3891 318.103 74.5212 317.666 74.5677Z" fill="#3B82F6"/>
<path d="M319.864 94.9728L167.077 111.424C166.196 111.519 165.313 111.26 164.622 110.703C163.931 110.147 163.49 109.339 163.395 108.457C163.3 107.576 163.559 106.693 164.116 106.002C164.672 105.311 165.48 104.87 166.362 104.775L319.148 88.3242C320.03 88.2292 320.913 88.4884 321.604 89.0447C322.294 89.601 322.735 90.4089 322.83 91.2905C322.925 92.1722 322.666 93.0554 322.11 93.746C321.553 94.4365 320.746 94.8778 319.864 94.9728Z" fill="#3B82F6"/>
<path d="M187.08 129.911L169.275 131.828C168.393 131.923 167.51 131.664 166.819 131.108C166.129 130.551 165.687 129.744 165.592 128.862C165.498 127.98 165.757 127.097 166.313 126.407C166.869 125.716 167.677 125.275 168.559 125.18L186.364 123.263C186.801 123.215 187.243 123.254 187.664 123.377C188.086 123.501 188.48 123.706 188.822 123.981C189.164 124.257 189.449 124.597 189.66 124.983C189.871 125.368 190.004 125.792 190.051 126.228C190.098 126.665 190.058 127.107 189.934 127.529C189.81 127.951 189.604 128.344 189.329 128.686C189.053 129.028 188.712 129.312 188.326 129.522C187.94 129.733 187.517 129.865 187.08 129.911Z" fill="#3B82F6"/>
<path d="M100.071 76.4506C103.395 76.4506 106.09 73.756 106.09 70.4321C106.09 67.1082 103.395 64.4136 100.071 64.4136C96.7473 64.4136 94.0527 67.1082 94.0527 70.4321C94.0527 73.756 96.7473 76.4506 100.071 76.4506Z" fill="#3F3D56"/>
<path d="M369.4 46.3578C372.724 46.3578 375.419 43.6633 375.419 40.3393C375.419 37.0154 372.724 34.3208 369.4 34.3208C366.076 34.3208 363.382 37.0154 363.382 40.3393C363.382 43.6633 366.076 46.3578 369.4 46.3578Z" fill="#3F3D56"/>
<path d="M288.032 169.916C287.479 169.43 287.041 168.827 286.75 168.151C286.459 167.475 286.322 166.742 286.35 166.007C286.652 157.265 285.212 148.55 282.114 140.37C281.852 139.683 281.745 138.945 281.804 138.212C281.862 137.478 282.082 136.766 282.45 136.128C282.802 135.515 283.284 134.987 283.862 134.58C284.441 134.173 285.101 133.898 285.797 133.774C292.792 129.552 299.964 128.367 307.116 130.252C308.269 130.082 309.445 130.329 310.433 130.948C311.421 131.568 312.155 132.519 312.505 133.631C315.401 143.031 317.011 152.781 317.293 162.614C317.32 163.793 316.921 164.943 316.168 165.852C315.415 166.76 314.36 167.367 313.196 167.56L292.031 171.057C291.322 171.176 290.595 171.135 289.903 170.937C289.211 170.74 288.572 170.391 288.032 169.916Z" fill="#3B82F6"/>
<path d="M289.912 144.446L307.726 141.503C307.873 141.479 308.013 141.426 308.139 141.348C308.266 141.27 308.375 141.168 308.462 141.047C308.548 140.926 308.61 140.79 308.644 140.645C308.678 140.501 308.683 140.351 308.658 140.205C308.634 140.058 308.581 139.918 308.503 139.792C308.425 139.666 308.322 139.557 308.201 139.471C308.08 139.384 307.944 139.323 307.799 139.289C307.655 139.256 307.505 139.251 307.359 139.276L289.544 142.219C289.25 142.268 288.987 142.433 288.813 142.676C288.639 142.919 288.569 143.221 288.618 143.516C288.666 143.811 288.83 144.074 289.073 144.248C289.315 144.423 289.617 144.494 289.912 144.446Z" fill="white"/>
<path d="M291.383 153.353L309.197 150.41C309.493 150.361 309.756 150.197 309.931 149.953C310.105 149.71 310.176 149.408 310.127 149.112C310.078 148.817 309.914 148.553 309.671 148.379C309.427 148.205 309.125 148.134 308.83 148.183L291.015 151.126C290.869 151.15 290.729 151.202 290.602 151.28C290.476 151.359 290.367 151.461 290.28 151.581C290.194 151.702 290.132 151.838 290.098 151.983C290.064 152.127 290.059 152.277 290.083 152.424C290.108 152.57 290.16 152.71 290.239 152.836C290.317 152.962 290.42 153.071 290.541 153.158C290.661 153.244 290.798 153.306 290.943 153.339C291.087 153.373 291.237 153.377 291.383 153.353Z" fill="white"/>
<path d="M292.855 162.26L310.669 159.317C310.965 159.268 311.229 159.104 311.403 158.86C311.577 158.617 311.648 158.315 311.599 158.019C311.55 157.724 311.386 157.46 311.143 157.286C310.899 157.112 310.597 157.041 310.302 157.09L292.488 160.033C292.341 160.057 292.201 160.11 292.075 160.188C291.95 160.266 291.84 160.369 291.754 160.489C291.668 160.609 291.606 160.746 291.572 160.89C291.539 161.034 291.534 161.184 291.558 161.33C291.582 161.476 291.635 161.616 291.713 161.742C291.791 161.868 291.894 161.977 292.014 162.064C292.135 162.15 292.271 162.212 292.415 162.245C292.56 162.279 292.709 162.284 292.855 162.26Z" fill="white"/>
</g>
<defs>
<clipPath id="clip0_565_165">
<rect width="550" height="473.668" fill="white" transform="translate(0 0.166016)"/>
</clipPath>
</defs>
</svg>
