<svg width="234" height="200" viewBox="0 0 234 200" fill="none" xmlns="http://www.w3.org/2000/svg">
<g clip-path="url(#clip0_565_115)">
<path d="M69.0247 197.913C72.7753 194.744 75.0534 189.737 74.456 184.864C73.8585 179.99 70.1581 175.509 65.3582 174.474C60.5582 173.439 55.0866 176.304 53.6286 180.993C52.8263 171.953 51.9017 162.535 47.0955 154.836C42.7436 147.866 35.2061 142.878 27.037 141.985C18.868 141.093 10.2671 144.463 5.17236 150.911C0.0776439 157.359 -1.16977 166.732 2.39844 174.135C5.02701 179.588 9.86977 183.646 14.9438 186.948C31.3397 197.527 51.0045 201.829 70.32 199.062" fill="#F2F2F2"/>
<path d="M13.2508 144.65C19.9913 150.14 26.175 156.281 31.7124 162.982C40.3784 173.435 47.3911 185.153 52.506 197.731C52.8804 198.648 51.3905 199.048 51.0203 198.14C47.7675 190.188 43.7433 182.574 39.0052 175.407C31.6167 164.212 22.5648 154.207 12.1613 145.74C11.3921 145.113 12.488 144.029 13.2508 144.65Z" fill="white"/>
<path d="M71.6149 197.913C67.8643 194.744 65.5862 189.737 66.1836 184.864C66.781 179.99 70.4815 175.509 75.2814 174.474C80.0814 173.439 85.553 176.304 87.0109 180.993C87.8133 171.953 88.7379 162.535 93.5441 154.836C97.896 147.866 105.434 142.878 113.603 141.985C121.772 141.093 130.372 144.463 135.467 150.911C140.562 157.359 141.809 166.732 138.241 174.135C135.613 179.588 130.77 183.646 125.696 186.948C109.3 197.527 89.6351 201.829 70.3196 199.062" fill="#F2F2F2"/>
<path d="M127.389 144.65C120.649 150.14 114.465 156.281 108.928 162.982C100.262 173.435 93.249 185.153 88.1341 197.731C87.7597 198.648 89.2496 199.048 89.6198 198.14C97.9888 177.7 111.349 159.684 128.479 145.74C129.248 145.113 128.152 144.029 127.389 144.65Z" fill="white"/>
<path d="M82.745 89.9697C89.6835 89.9697 95.3083 84.3449 95.3083 77.4063C95.3083 70.4678 89.6835 64.843 82.745 64.843C75.8064 64.843 70.1816 70.4678 70.1816 77.4063C70.1816 84.3449 75.8064 89.9697 82.745 89.9697Z" fill="#F2F2F2"/>
<path d="M44.0091 34.0984H130.567V38.8341H55.0589C50.6194 38.8341 46.2233 39.7085 42.1216 41.4074C38.02 43.1064 34.2931 45.5966 31.1538 48.7358C28.0146 51.8751 25.5244 55.6019 23.8254 59.7036C22.1265 63.8052 21.252 68.2013 21.252 72.6409V126.444H11.7807C11.362 126.444 10.9605 126.277 10.6645 125.981C10.3685 125.685 10.2022 125.284 10.2021 124.865V67.9052C10.2021 63.4657 11.0766 59.0695 12.7755 54.9679C14.4745 50.8663 16.9647 47.1394 20.104 44.0002C23.2432 40.8609 26.9701 38.3707 31.0717 36.6718C35.1734 34.9728 39.5695 34.0984 44.0091 34.0984Z" fill="#F2F2F2"/>
<path d="M60.6582 198.176V126.241H81.7322V198.176C81.7316 198.66 81.5393 199.123 81.1974 199.465C80.8555 199.807 80.392 200 79.9085 200H62.4819C61.9984 200 61.5349 199.807 61.193 199.465C60.8511 199.123 60.6587 198.66 60.6582 198.176Z" fill="#3F3D56"/>
<path d="M5.74414 124.823V66.3284C5.75465 57.0165 9.45845 48.089 16.043 41.5044C22.6275 34.9199 31.5549 31.2161 40.8668 31.2056H130.162V126.849H7.77048C7.23325 126.848 6.71821 126.635 6.33833 126.255C5.95845 125.875 5.74476 125.36 5.74414 124.823ZM129.351 32.0161H40.8668C31.7698 32.0264 23.0484 35.6448 16.6158 42.0773C10.1833 48.5099 6.56496 57.2314 6.55468 66.3284V124.823C6.55503 125.145 6.68324 125.454 6.91117 125.682C7.1391 125.91 7.44814 126.038 7.77048 126.038H129.351V32.0161Z" fill="#3F3D56"/>
<path d="M82.7447 83.8906C80.8106 83.8884 78.9564 83.1191 77.5888 81.7516C76.2213 80.384 75.452 78.5298 75.4498 76.5957V24.3161C75.4495 23.9938 75.3213 23.6847 75.0933 23.4568C74.8654 23.2289 74.5563 23.1007 74.234 23.1003H45.8652C45.328 23.0997 44.8129 22.886 44.4331 22.5061C44.0532 22.1262 43.8395 21.6112 43.8389 21.074V2.02634C43.8395 1.48911 44.0532 0.974065 44.4331 0.594187C44.8129 0.214309 45.328 0.000622103 45.8652 0H88.0131C88.5504 0.000614611 89.0654 0.214301 89.4453 0.594181C89.8252 0.97406 90.0389 1.48911 90.0395 2.02634V76.5957C90.0373 78.5298 89.2681 80.384 87.9005 81.7516C86.5329 83.1191 84.6787 83.8884 82.7447 83.8906Z" fill="#6C63FF"/>
<path d="M133.403 30.3951C139.517 30.3823 145.385 32.7986 149.717 37.1127C154.05 41.4267 156.491 47.2849 156.503 53.3987V119.988H201.893C203.717 119.984 205.467 120.705 206.759 121.992C208.051 123.278 208.779 125.026 208.783 126.849H110.303V53.3987C110.316 47.2849 112.757 41.4267 117.089 37.1127C121.421 32.7986 127.289 30.3823 133.403 30.3951Z" fill="#3F3D56"/>
<path d="M127.86 68.315L132.643 88.0743L226.212 65.4232L221.429 45.6639C221.371 45.4223 221.253 45.1992 221.086 45.0154C220.919 44.8315 220.708 44.6928 220.473 44.6122C220.3 44.5512 220.117 44.5236 219.933 44.5308L165.846 16.526C165.529 16.3642 165.165 16.3209 164.819 16.4041C164.473 16.4873 164.168 16.6914 163.959 16.9796L137.892 53.3297L128.065 67.037C128.047 67.061 128.035 67.0886 128.029 67.1178C128.022 67.1471 128.023 67.1773 128.029 67.2065C127.829 67.5394 127.768 67.9376 127.86 68.315Z" fill="white"/>
<path d="M128.029 67.2065C128.034 67.2322 128.044 67.2567 128.058 67.2787C128.072 67.3007 128.09 67.3196 128.112 67.3345C128.137 67.3519 128.166 67.3639 128.196 67.3699C128.226 67.3758 128.257 67.3756 128.287 67.3691C128.336 67.3561 128.379 67.3264 128.408 67.2851L128.442 67.2384L128.954 66.5229L138.246 53.5688L164.305 17.227C164.454 17.0211 164.672 16.8753 164.919 16.8161C165.166 16.7569 165.426 16.7882 165.652 16.9043L219.319 44.6923L219.801 44.9422C219.821 44.9504 219.84 44.9574 219.861 44.9632C219.897 44.9566 219.934 44.953 219.971 44.9526C220.021 44.9358 220.063 44.9003 220.088 44.8534C220.101 44.8288 220.109 44.8017 220.112 44.7739C220.115 44.7461 220.112 44.7181 220.103 44.6914C220.095 44.6648 220.082 44.64 220.064 44.6185C220.046 44.597 220.024 44.5792 220 44.5662L219.933 44.5309L165.846 16.526C165.529 16.3642 165.165 16.3209 164.819 16.4041C164.473 16.4873 164.168 16.6914 163.959 16.9796L137.892 53.3297L128.065 67.037C128.048 67.061 128.035 67.0886 128.029 67.1178C128.023 67.1471 128.023 67.1773 128.029 67.2065Z" fill="#3F3D56"/>
<path d="M156.131 69.2215L158.214 69.4526L173.672 71.165L183.92 72.2994L184.525 72.3667L197.312 62.379L197.802 61.9964L200.822 59.6377L211.567 51.246L211.632 50.6566L215.454 16.1625C215.506 15.6876 215.367 15.2113 215.069 14.8382C214.77 14.4651 214.336 14.2255 213.861 14.1721L162.856 8.52191C162.381 8.47004 161.905 8.60849 161.532 8.90695C161.159 9.20541 160.919 9.63955 160.865 10.1143L158.17 34.4456L156.675 47.9353L155.338 60.0036L154.718 65.6081L154.537 67.2315C154.485 67.7067 154.624 68.1829 154.923 68.5559C155.222 68.9289 155.656 69.1683 156.131 69.2215Z" fill="#E6E6E6"/>
<path d="M170.147 38.986L192.241 41.4331L200.076 42.3006C200.422 42.3389 200.772 42.3087 201.106 42.2118C201.441 42.1148 201.752 41.9529 202.024 41.7354C202.296 41.5179 202.522 41.249 202.69 40.944C202.858 40.6391 202.964 40.3041 203.002 39.9582C203.04 39.6122 203.01 39.2621 202.913 38.9279C202.816 38.5936 202.654 38.2817 202.437 38.01C202.219 37.7383 201.95 37.5121 201.645 37.3444C201.34 37.1766 201.005 37.0705 200.66 37.0322L190.914 35.9529L170.732 33.715C170.033 33.6378 169.332 33.8413 168.784 34.2807C168.235 34.72 167.883 35.3594 167.805 36.0581C167.728 36.7569 167.931 37.4578 168.37 38.0069C168.809 38.5559 169.448 38.9081 170.147 38.986Z" fill="white"/>
<path d="M168.889 48.7593C168.946 48.7695 169.003 48.7797 169.061 48.7853L194.709 51.6266L198.991 52.1019C199.69 52.1793 200.391 51.9758 200.94 51.5362C201.489 51.0967 201.841 50.4571 201.918 49.7582C201.995 49.0593 201.792 48.3583 201.352 47.8094C200.913 47.2605 200.273 46.9087 199.574 46.8314L193.382 46.1464L173.066 43.8952L169.647 43.5163C168.963 43.4401 168.277 43.6327 167.732 44.0535C167.188 44.4742 166.829 45.0902 166.73 45.7711C166.632 46.452 166.802 47.1445 167.205 47.7021C167.608 48.2598 168.212 48.6389 168.889 48.7593Z" fill="white"/>
<path d="M165.987 57.4255C166.197 57.7744 166.485 58.0702 166.828 58.2899C167.171 58.5096 167.56 58.6472 167.965 58.6921L178.477 59.8564L197.199 61.9305L197.203 61.9295L197.802 61.9962L200.822 59.6375C200.841 59.4583 200.841 59.2777 200.822 59.0985C200.759 58.4968 200.492 57.9349 200.065 57.5057C199.639 57.0765 199.078 56.8058 198.477 56.7383L195.876 56.4493L185.56 55.3076L178.136 54.4843L168.548 53.4216C168.056 53.3672 167.559 53.4514 167.113 53.6645C166.667 53.8777 166.289 54.2114 166.023 54.6279C165.757 55.0444 165.612 55.5271 165.606 56.0215C165.599 56.5159 165.731 57.0022 165.987 57.4255Z" fill="white"/>
<path d="M180.751 27.0393L186.249 27.6482L188.677 27.9178L192.344 28.3238C193.043 28.4011 193.744 28.1976 194.293 27.758C194.842 27.3185 195.194 26.6789 195.271 25.98C195.349 25.2811 195.145 24.5801 194.705 24.0312C194.266 23.4823 193.626 23.1305 192.927 23.0532L181.337 21.7704C180.638 21.6927 179.937 21.8958 179.388 22.3349C178.839 22.7741 178.487 23.4133 178.41 24.112C178.332 24.8107 178.535 25.5117 178.974 26.0607C179.413 26.6096 180.053 26.9617 180.751 27.0393Z" fill="white"/>
<path d="M135.801 41.7149L142.503 69.4004L153.689 71.5273L164.037 73.4973L175.138 75.6097L178.686 76.2848C178.893 76.324 179.107 76.3186 179.312 76.2689C179.518 76.2191 179.71 76.1262 179.877 75.9964L182.723 73.7737L184.525 72.3666L197.312 62.3788L189.181 28.7928C189.101 28.4586 188.926 28.1548 188.677 27.9177C188.459 27.708 188.191 27.5566 187.899 27.4775C187.607 27.3984 187.3 27.3941 187.005 27.465L137.129 39.539C136.665 39.6518 136.264 39.9442 136.015 40.3522C135.766 40.7602 135.689 41.2503 135.801 41.7149Z" fill="#6C63FF"/>
<path d="M151.17 63.7398C151.336 64.4228 151.766 65.0119 152.366 65.378C152.966 65.7441 153.686 65.8572 154.37 65.6924L183.636 58.6076C184.319 58.4414 184.907 58.0111 185.273 57.4113C185.64 56.8114 185.753 56.0909 185.588 55.4077C185.581 55.3739 185.571 55.3405 185.56 55.3078C185.373 54.6491 184.938 54.0883 184.347 53.7429C183.756 53.3976 183.054 53.2944 182.388 53.4551L153.122 60.5399C152.439 60.7058 151.85 61.136 151.484 61.7359C151.118 62.3359 151.005 63.0566 151.17 63.7398Z" fill="white"/>
<path d="M153.689 71.5274L164.037 73.4973L185.956 68.1913C186.639 68.0259 187.228 67.5958 187.595 66.9957C187.961 66.3956 188.074 65.6746 187.908 64.9914C187.743 64.3081 187.313 63.7185 186.713 63.3524C186.112 62.9862 185.391 62.8734 184.708 63.0388L155.442 70.1235C154.83 70.2704 154.292 70.6315 153.923 71.1414C153.835 71.2632 153.756 71.3923 153.689 71.5274Z" fill="white"/>
<path d="M175.139 75.6097L178.686 76.2848C178.894 76.324 179.107 76.3186 179.313 76.2689C179.518 76.2192 179.711 76.1263 179.877 75.9964L182.723 73.7737L175.139 75.6097Z" fill="white"/>
<path d="M157.067 48.8944C157.232 49.5773 157.663 50.1665 158.263 50.5326C158.863 50.8987 159.583 51.0117 160.266 50.847L171.602 48.1029C172.285 47.9366 172.874 47.5063 173.24 46.9065C173.606 46.3067 173.719 45.5862 173.555 44.903C173.466 44.5358 173.3 44.1921 173.066 43.8954C172.753 43.4942 172.33 43.1918 171.849 43.0242C171.369 42.8566 170.85 42.831 170.355 42.9504L159.019 45.6945C158.336 45.86 157.746 46.29 157.38 46.8901C157.014 47.4902 156.901 48.2111 157.067 48.8944Z" fill="white"/>
<path d="M164.036 73.4972L175.139 75.6101L178.685 76.2854C178.893 76.3242 179.106 76.3186 179.312 76.2689C179.517 76.2192 179.709 76.1266 179.876 75.9972L182.724 73.774L181.725 74.0159L179.615 75.6617C179.496 75.7541 179.358 75.8203 179.212 75.8558C179.065 75.8912 178.913 75.8953 178.764 75.8676L176.139 75.3681L165.035 73.2552L164.036 73.4972ZM197.202 61.9312L197.31 62.3778L197.802 61.9949L197.202 61.9312ZM164.036 73.4972L175.139 75.6101L178.685 76.2854C178.893 76.3242 179.106 76.3186 179.312 76.2689C179.517 76.2192 179.709 76.1266 179.876 75.9972L182.724 73.774L181.725 74.0159L179.615 75.6617C179.496 75.7541 179.358 75.8203 179.212 75.8558C179.065 75.8912 178.913 75.8953 178.764 75.8676L176.139 75.3681L165.035 73.2552L164.036 73.4972ZM164.036 73.4972L175.139 75.6101L178.685 76.2854C178.893 76.3242 179.106 76.3186 179.312 76.2689C179.517 76.2192 179.709 76.1266 179.876 75.9972L182.724 73.774L181.725 74.0159L179.615 75.6617C179.496 75.7541 179.358 75.8203 179.212 75.8558C179.065 75.8912 178.913 75.8953 178.764 75.8676L176.139 75.3681L165.035 73.2552L164.036 73.4972ZM127.86 68.3151L140.389 120.072C140.482 120.454 140.723 120.784 141.059 120.989C141.395 121.194 141.799 121.258 142.181 121.166L232.865 99.213C233.247 99.1201 233.577 98.8792 233.782 98.5432C233.987 98.2072 234.051 97.8035 233.958 97.4209L221.429 45.664C221.371 45.4224 221.253 45.1993 221.086 45.0155C220.919 44.8316 220.708 44.6929 220.473 44.6123C220.3 44.5513 220.117 44.5237 219.933 44.5309C219.719 44.5371 219.509 44.5923 219.319 44.6923C219.232 44.7339 219.149 44.7851 219.073 44.8452L211.631 50.6566L200.822 59.0998L197.201 61.9282L197.202 61.9312L197.199 61.932L183.92 72.2979L181.725 74.0159L179.615 75.6617C179.496 75.7541 179.358 75.8203 179.212 75.8558C179.065 75.8912 178.913 75.8953 178.764 75.8676L176.139 75.3681L165.035 73.2552L153.922 71.1415L129.581 66.5094C129.373 66.4683 129.159 66.4729 128.954 66.523C128.677 66.5906 128.425 66.7363 128.229 66.9428C128.154 67.0239 128.087 67.1122 128.029 67.2066C127.829 67.5394 127.768 67.9377 127.86 68.3151ZM164.036 73.4972L175.139 75.6101L178.685 76.2854C178.893 76.3242 179.106 76.3186 179.312 76.2689C179.517 76.2192 179.709 76.1266 179.876 75.9972L182.724 73.774L181.725 74.0159L179.615 75.6617C179.496 75.7541 179.358 75.8203 179.212 75.8558C179.065 75.8912 178.913 75.8953 178.764 75.8676L176.139 75.3681L165.035 73.2552L164.036 73.4972ZM164.036 73.4972L175.139 75.6101L178.685 76.2854C178.893 76.3242 179.106 76.3186 179.312 76.2689C179.517 76.2192 179.709 76.1266 179.876 75.9972L182.724 73.774L181.725 74.0159L179.615 75.6617C179.496 75.7541 179.358 75.8203 179.212 75.8558C179.065 75.8912 178.913 75.8953 178.764 75.8676L176.139 75.3681L165.035 73.2552L164.036 73.4972ZM164.036 73.4972L175.139 75.6101L178.685 76.2854C178.893 76.3242 179.106 76.3186 179.312 76.2689C179.517 76.2192 179.709 76.1266 179.876 75.9972L182.724 73.774L181.725 74.0159L179.615 75.6617C179.496 75.7541 179.358 75.8203 179.212 75.8558C179.065 75.8912 178.913 75.8953 178.764 75.8676L176.139 75.3681L165.035 73.2552L164.036 73.4972Z" fill="white"/>
<path d="M164.036 73.4972L175.139 75.6101L178.685 76.2854C178.893 76.3242 179.106 76.3186 179.312 76.2689C179.517 76.2192 179.709 76.1266 179.876 75.9972L182.724 73.7739L181.725 74.0159L179.615 75.6617C179.496 75.7541 179.358 75.8203 179.212 75.8557C179.065 75.8912 178.913 75.8953 178.764 75.8676L176.139 75.3681L165.035 73.2552L164.036 73.4972ZM197.202 61.9312L197.31 62.3777L197.802 61.9949L197.202 61.9312ZM164.036 73.4972L175.139 75.6101L178.685 76.2854C178.893 76.3242 179.106 76.3186 179.312 76.2689C179.517 76.2192 179.709 76.1266 179.876 75.9972L182.724 73.7739L181.725 74.0159L179.615 75.6617C179.496 75.7541 179.358 75.8203 179.212 75.8557C179.065 75.8912 178.913 75.8953 178.764 75.8676L176.139 75.3681L165.035 73.2552L164.036 73.4972ZM164.036 73.4972L175.139 75.6101L178.685 76.2854C178.893 76.3242 179.106 76.3186 179.312 76.2689C179.517 76.2192 179.709 76.1266 179.876 75.9972L182.724 73.7739L181.725 74.0159L179.615 75.6617C179.496 75.7541 179.358 75.8203 179.212 75.8557C179.065 75.8912 178.913 75.8953 178.764 75.8676L176.139 75.3681L165.035 73.2552L164.036 73.4972ZM128.442 67.2385L128.497 67.2798C128.506 67.2647 128.522 67.2512 128.534 67.2354C128.657 67.1076 128.81 67.0123 128.979 66.9579C129.147 66.9036 129.327 66.892 129.501 66.9242L153.69 71.5256L164.036 73.4972L175.139 75.6101L178.685 76.2854C178.893 76.3242 179.106 76.3186 179.312 76.2689C179.517 76.2192 179.709 76.1266 179.876 75.9972L182.724 73.7739L181.725 74.0159L179.615 75.6617C179.496 75.7541 179.358 75.8203 179.212 75.8557C179.065 75.8912 178.913 75.8953 178.764 75.8676L176.139 75.3681L165.035 73.2552L153.922 71.1415L129.581 66.5094C129.373 66.4683 129.159 66.4729 128.954 66.5229L128.442 67.2385ZM127.86 68.3151L140.389 120.072C140.482 120.454 140.723 120.784 141.059 120.989C141.395 121.194 141.799 121.258 142.181 121.166L232.865 99.213C233.247 99.1201 233.577 98.8792 233.782 98.5432C233.987 98.2072 234.051 97.8035 233.958 97.4209L221.429 45.664C221.371 45.4224 221.253 45.1993 221.086 45.0155C220.919 44.8316 220.708 44.6929 220.473 44.6123C220.3 44.5513 220.117 44.5237 219.933 44.5309C219.719 44.5371 219.509 44.5923 219.319 44.6923C219.232 44.7339 219.149 44.7851 219.073 44.8452L211.631 50.6566L200.822 59.0998L197.201 61.9282L197.202 61.9312L197.199 61.932L183.92 72.2979L181.725 74.0159L179.615 75.6617C179.496 75.7541 179.358 75.8203 179.212 75.8557C179.065 75.8912 178.913 75.8953 178.764 75.8676L176.139 75.3681L165.035 73.2552L153.922 71.1415L129.581 66.5094C129.373 66.4683 129.159 66.4729 128.954 66.5229C128.677 66.5906 128.425 66.7363 128.229 66.9428C128.154 67.0239 128.087 67.1122 128.029 67.2066C127.829 67.5394 127.768 67.9377 127.86 68.3151ZM128.273 68.2151C128.236 68.0625 128.234 67.9036 128.266 67.75C128.299 67.5964 128.365 67.452 128.46 67.3273C128.469 67.309 128.481 67.2928 128.497 67.2798C128.506 67.2647 128.522 67.2512 128.534 67.2354C128.657 67.1076 128.81 67.0123 128.979 66.9579C129.147 66.9036 129.327 66.892 129.501 66.9242L153.69 71.5256L164.036 73.4972L175.139 75.6101L178.685 76.2854C178.893 76.3242 179.106 76.3186 179.312 76.2689C179.517 76.2192 179.709 76.1266 179.876 75.9972L182.724 73.7739L184.525 72.3669L197.31 62.3777L197.802 61.9949L200.82 59.6372L211.567 51.2443L219.337 45.1768C219.455 45.0847 219.591 45.0188 219.737 44.9835C219.777 44.9736 219.819 44.9668 219.861 44.9632C219.897 44.9566 219.934 44.9531 219.971 44.9527C220.095 44.9515 220.218 44.9716 220.336 45.0122C220.503 45.0705 220.653 45.1698 220.773 45.301C220.892 45.4321 220.977 45.591 221.019 45.7633L233.548 97.5202C233.581 97.6558 233.587 97.7966 233.566 97.9345C233.544 98.0724 233.496 98.2047 233.423 98.3239C233.35 98.443 233.255 98.5467 233.142 98.6289C233.029 98.7111 232.901 98.7702 232.765 98.8029L142.082 120.755C141.809 120.821 141.52 120.776 141.28 120.629C141.04 120.482 140.868 120.246 140.803 119.972L128.273 68.2151ZM164.036 73.4972L175.139 75.6101L178.685 76.2854C178.893 76.3242 179.106 76.3186 179.312 76.2689C179.517 76.2192 179.709 76.1266 179.876 75.9972L182.724 73.7739L181.725 74.0159L179.615 75.6617C179.496 75.7541 179.358 75.8203 179.212 75.8557C179.065 75.8912 178.913 75.8953 178.764 75.8676L176.139 75.3681L165.035 73.2552L164.036 73.4972ZM164.036 73.4972L175.139 75.6101L178.685 76.2854C178.893 76.3242 179.106 76.3186 179.312 76.2689C179.517 76.2192 179.709 76.1266 179.876 75.9972L182.724 73.7739L181.725 74.0159L179.615 75.6617C179.496 75.7541 179.358 75.8203 179.212 75.8557C179.065 75.8912 178.913 75.8953 178.764 75.8676L176.139 75.3681L165.035 73.2552L164.036 73.4972ZM164.036 73.4972L175.139 75.6101L178.685 76.2854C178.893 76.3242 179.106 76.3186 179.312 76.2689C179.517 76.2192 179.709 76.1266 179.876 75.9972L182.724 73.7739L181.725 74.0159L179.615 75.6617C179.496 75.7541 179.358 75.8203 179.212 75.8557C179.065 75.8912 178.913 75.8953 178.764 75.8676L176.139 75.3681L165.035 73.2552L164.036 73.4972Z" fill="#3F3D56"/>
<path d="M209.23 89.0444C209.026 88.1963 209.166 87.3019 209.621 86.5572C210.075 85.8125 210.806 85.2785 211.654 85.0723L223.1 82.3016C223.946 82.0997 224.839 82.2417 225.581 82.6966C226.324 83.1514 226.856 83.8819 227.06 84.7281C227.265 85.5743 227.126 86.4673 226.674 87.2113C226.222 87.9553 225.493 88.4897 224.648 88.6976L213.202 91.4683C212.354 91.6726 211.46 91.5321 210.715 91.0777C209.971 90.6233 209.436 89.8921 209.23 89.0444Z" fill="#6C63FF"/>
<path d="M82.7451 79.4325C84.3118 79.4325 85.582 78.1624 85.582 76.5957C85.582 75.0289 84.3118 73.7588 82.7451 73.7588C81.1783 73.7588 79.9082 75.0289 79.9082 76.5957C79.9082 78.1624 81.1783 79.4325 82.7451 79.4325Z" fill="white"/>
</g>
<defs>
<clipPath id="clip0_565_115">
<rect width="233.637" height="200" fill="white" transform="translate(0.363281)"/>
</clipPath>
</defs>
</svg>
